PathFileType	4	(X/Y/Z)	C:/Users/beibeiliu/ov580/test_trc/User1\sequence.18_training_dense_left.trc
DataRate	CameraRate	NumFrames	NumMarkers	Units	OrigDataRate	OrigDataStartFrame	OrigNumFrames
120	120	24	19	mm	120	1	286
Frame#	Time	ThumbCMC			ThumbMCP			ThumbIP			ThumbTip			IndexMCP			IndexPIP			IndexTip			MiddleMCP			MiddlePIP			MiddleTip			RingMCP			RingPIP			RingTip			PinkyMCP			PinkyPIP			PinkyTip			BackHand1			BackHand2			BackHand3	
		X0	Y0	Z0	X1	Y1	Z1	X2	Y2	Z2	X3	Y3	Z3	X4	Y4	Z4	X5	Y5	Z5	X6	Y6	Z6	X7	Y7	Z7	X8	Y8	Z8	X9	Y9	Z9	X10	Y10	Z10	X11	Y11	Z11	X12	Y12	Z12	X13	Y13	Z13	X14	Y14	Z14	X15	Y15	Z15	X16	Y16	Z16	X17	Y17	Z17	X18	Y18	Z18	
0	0	-161.518	51.8093	54.7267	-141.309	32.7925	49.6845	-116.802	22.8284	41.2572	-96.2955	14.055	37.328	-167.127	43.7703	-32.1553	-160.981	40.2027	-56.3284	-157.51	39.4936	-86.5335	-191.373	51.7012	-45.2645	-189.902	50.709	-73.3439	-190.932	48.5537	-103.156	-214.484	51.2735	-42.8072	-215.024	51.6512	-66.6736	-216.954	47.0626	-92.6185	-247.872	43.89	-24.542	-254.036	42.4221	-40.1263	-257.582	46.3299	-65.8662	-218.927	66.0495	6.54747	-225.029	80.0158	42.018	-188.059	70.5078	27.2622	
1	0.00833333	-162.815	49.7646	52.2742	-140.001	32.3493	48.5355	-120.971	20.2084	37.6979	-97.3734	11.7085	36.5693	-167.983	43.177	-33.8441	-162.603	40.4443	-60.7835	-160.214	38.6616	-87.8789	-191.193	50.996	-47.7318	-189.956	49.88	-70.786	-192.021	47.932	-103.209	-219.73	51.4631	-41.2811	-214.988	49.9807	-66.8483	-216.919	47.2151	-97.2845	-245.178	42.6949	-20.9359	-256.484	41.6546	-44.4846	-260.394	47.3511	-63.0999	-222.41	65.267	10.1452	-223.892	79.3	39.5424	-187.591	68.2655	25.9982	
2	0.0166667	-163.726	49.5525	53.468	-143.363	32.0529	49.1662	-116.639	19.2039	37.0403	-101.876	11.5594	37.2203	-162.612	42.1794	-37.0826	-163.248	40.0742	-59.2792	-157.132	38.1722	-83.7805	-193.943	52.1999	-45.1954	-190.517	49.9912	-72.7112	-189.48	47.8098	-101.91	-214.958	51.116	-39.4742	-215.393	49.8685	-71.9575	-218.208	47.1393	-96.9215	-246.996	44.1441	-22.78	-256.342	41.6415	-42.7059	-259.781	45.1381	-64.3102	-222.858	66.2706	8.823	-223.542	77.7295	39.3141	-189.651	69.0173	27.9898	
3	0.025	-159.622	48.4325	49.5194	-142.693	30.8294	45.6568	-119.444	19.6413	36.7702	-102.244	12.0337	37.9933	-165.594	42.8378	-37.3507	-158.608	40.8057	-62.466	-162.787	38.5032	-84.5256	-191.836	51.8773	-44.2488	-190.723	50.3066	-75.4216	-192.209	48.1471	-103.529	-214.45	51.4479	-42.7278	-216.277	50.5506	-71.2691	-216.061	47.305	-92.5017	-242.535	43.226	-22.8746	-251.897	42.6104	-44.1796	-259.675	47.9283	-64.6118	-221.017	64.5204	6.00135	-227.173	78.3699	37.0198	-187.796	68.5859	24.8559	
4	0.0333333	-165.059	49.2617	51.5311	-140.753	30.6446	44.5753	-118.203	20.5686	38.9667	-99.3422	12.359	37.945	-163.265	43.8481	-33.87	-160.95	41.8193	-58.1126	-158.124	39.4218	-83.7083	-188.905	52.8784	-50.0605	-187.683	49.544	-77.748	-189.417	48.4615	-102.021	-219.19	51.5719	-42.6217	-214.634	51.1172	-73.0435	-217.628	47.0318	-97.7153	-248.421	43.6665	-24.6788	-250.609	42.0549	-43.6107	-259.97	48.0156	-65.4878	-221.571	66.6113	5.83536	-221.359	78.1396	36.2192	-188.762	67.9276	24.6206	
5	0.0416667	-163.645	47.886	48.0966	-142.417	30.7009	44.8412	-118.631	18.9415	34.5974	-98.8709	11.424	37.346	-162.992	43.3275	-32.4058	-163.544	41.2174	-62.5136	-159.326	38.7343	-83.887	-193.315	51.8544	-49.2474	-188.674	49.8609	-74.835	-192.5	48.0297	-103.316	-219.795	51.4675	-42.6959	-217.864	50.7747	-72.8866	-219.285	46.9328	-94.7062	-246.192	44.3331	-24.8175	-250.785	42.0854	-41.677	-260.799	45.4194	-64.8898	-219.047	66.3281	9.89947	-224.43	77.8251	38.0357	-186.029	67.5274	26.7075	
6	0.05	-161.093	48.1932	49.3881	-139.696	30.4348	45.5995	-122.104	18.2301	37.7561	-101.658	10.8168	35.9358	-166.218	43.3402	-37.7282	-160.769	40.3337	-57.6913	-161.77	38.6338	-84.3582	-194.15	51.8682	-49.4962	-188.859	49.4958	-72.257	-190.529	48.7199	-104.609	-215.093	50.9489	-39.768	-216.718	50.4335	-69.5445	-215.2	47.2071	-97.9544	-248.333	43.9389	-24.1314	-254.763	41.703	-46.0113	-260.731	45.6207	-66.3201	-218.163	64.2296	11.1252	-225.742	78.5529	39.7261	-188.804	69.8409	27.3477	
7	0.0583333	-162.71	50.2171	53.296	-142.084	31.253	47.4853	-116.923	20.0184	36.0477	-99.4531	12.7867	37.8042	-165.359	44.302	-36.6925	-159.817	40.6038	-62.6556	-162.973	39.8445	-84.8241	-192.546	52.0237	-49.3421	-190.206	49.7457	-73.6664	-187.591	47.5686	-107.586	-214.964	51.5492	-41.4562	-219.407	50.6711	-70.5086	-218.566	46.6914	-94.7706	-248.535	44.8532	-27.0542	-252.752	42.0743	-43.2029	-261.013	44.8357	-69.7194	-223.443	65.8808	9.85903	-225.442	78.3513	37.6796	-185.72	70.371	26.5425	
8	0.0666667	-162.867	48.1023	50.8676	-141.923	29.8395	44.5203	-121.66	19.1773	34.7909	-98.5742	11.3245	32.6715	-165.739	44.4628	-34.3152	-161.267	41.7342	-63.4982	-157.591	39.5593	-88.7083	-192.089	52.6607	-45.8431	-192.37	50.5549	-77.4267	-190.211	47.5879	-105.234	-216.899	52.2157	-43.2659	-218.711	51.2621	-70.0553	-215.137	46.324	-97.341	-247.811	44.9072	-22.6129	-252.335	42.3328	-42.3664	-260.87	45.513	-67.666	-220.864	64.4837	8.81883	-226.87	77.9885	40.7731	-188.405	68.2527	27.8333	
9	0.075	-165.815	49.1181	51.8384	-139.373	30.9594	46.9964	-119.293	21.328	38.6522	-103.259	10.3392	33.4765	-164.384	45.0132	-35.3402	-164.044	43.3262	-59.155	-161.281	41.763	-86.3504	-190.13	53.7417	-48.1886	-187.716	51.5911	-74.9426	-188.809	48.0722	-103.795	-213.4	53.4187	-44.2789	-219.282	53.3266	-68.7942	-216.693	47.1757	-95.9451	-243.021	45.0632	-23.4828	-253.681	42.7127	-45.3428	-258.003	45.2806	-67.9174	-223.669	66.4405	8.80024	-226.091	78.4747	36.7616	-187.749	69.4099	28.8197	
10	0.0833333	-163.177	49.3486	50.508	-141.587	31.518	46.1435	-119.701	20.1809	35.8288	-99.4184	11.1181	32.8936	-166.615	46.0834	-36.8129	-161.031	43.97	-60.0408	-161.338	42.6659	-88.968	-191.237	55.327	-49.8646	-188.612	52.5874	-74.1671	-192.32	49.8113	-104.155	-220.032	54.1881	-42.9227	-218.628	53.8566	-69.4706	-215.774	48.6111	-97.6209	-243.254	45.5544	-24.28	-252.555	44.119	-45.5409	-257.488	45.8843	-67.8157	-223.683	66.9847	9.38318	-225.774	77.0504	36.6064	-189.643	70.6402	27.4711	
11	0.0916667	-167.717	48.9394	52.1625	-140.368	32.2232	48.5742	-119.278	21.3817	37.2765	-103.464	10.3569	30.8826	-164.841	48.2765	-37.2497	-160.434	46.2969	-62.8245	-161.587	44.6003	-85.7723	-191.465	57.3436	-47.0579	-190.456	56.0024	-76.6984	-189.993	52.577	-108.105	-218.761	55.7096	-41.3689	-215.482	54.755	-69.2262	-218.086	50.5681	-94.8327	-243.311	46.862	-30.4291	-250.179	44.3357	-44.6541	-260.092	47.4715	-69.6198	-223.115	69.2955	7.42732	-228.544	79.1715	38.4119	-187.187	68.5976	27.141	
12	0.1	-166.78	49.5422	47.2897	-144.935	30.7593	43.1993	-119.443	20.962	35.7632	-100.923	11.5084	30.5383	-163.971	51.4711	-38.8915	-158.707	49.6674	-62.3741	-160.309	47.5329	-85.4702	-189.594	59.723	-49.4453	-189.681	58.0283	-78.7949	-190.907	55.0954	-105.109	-220.265	58.1251	-44.042	-214.203	56.2374	-73.3119	-216.822	51.3081	-97.3794	-246.427	47.756	-26.4766	-251.752	45.1322	-44.9772	-257.902	48.4442	-72.4857	-219.75	67.3331	7.05488	-227.346	77.8728	41.6006	-190.5	69.8714	29.2568	
13	0.108333	-166.624	49.1353	51.2533	-140.674	31.7342	42.7016	-119.066	21.8572	30.5049	-101.292	10.3793	24.4415	-168.47	56.201	-36.6773	-162.005	55.1942	-60.7976	-160.018	52.361	-90.269	-191.529	64.6779	-51.5201	-188.216	61.725	-78.7624	-188.615	57.2866	-105.342	-217.523	60.7882	-46.4497	-216.664	59.1677	-70.6189	-215.723	53.4997	-96.5466	-243.691	50.1597	-32.3447	-252.723	45.8106	-51.8124	-254.778	48.1959	-74.5583	-221.599	68.689	7.45958	-227.797	78.7625	39.9464	-191.338	73.8528	31.6728	
14	0.116667	-165.572	50.6776	50.3375	-144.206	32.6719	42.3521	-121.987	22.2843	28.625	-105.898	11.5579	18.5545	-168.179	62.5006	-39.5641	-163.269	61.1897	-63.1443	-160.093	57.1859	-90.2364	-191.275	68.7559	-48.1151	-187.707	66.2937	-77.5324	-189.487	59.5554	-111.28	-217.456	64.601	-45.7849	-216.417	63.1243	-73.9171	-213.934	55.7855	-96.8301	-247.638	51.9288	-32.7552	-251.448	49.3594	-49.4516	-254.884	48.8287	-79.078	-227.367	72.0629	10.206	-229.362	75.4413	40.6437	-194.019	74.7796	29.8966	
15	0.125	-167.563	49.7889	49.6711	-145.621	32.1417	36.2669	-122.333	23.6991	20.0049	-108.317	11.7381	13.9889	-166.15	68.8686	-36.3004	-158.759	67.9702	-62.1167	-159.881	63.394	-92.8092	-194.449	74.7419	-46.7168	-185.513	71.8349	-79.8704	-185.787	63.5363	-107.288	-218.815	68.8375	-44.3536	-213.984	66.6486	-72.5854	-213.204	57.9065	-98.5679	-247.246	54.3091	-32.7711	-247.283	51.3568	-53.3083	-246.756	49.4668	-80.857	-225.926	72.2732	8.6925	-232.392	75.003	42.4051	-193.523	77.8269	29.8471	
16	0.133333	-169.026	51.0133	51.0816	-144.468	33.9258	31.7938	-127.519	26.288	16.5892	-109.559	16.2065	1.24225	-167.738	76.5123	-32.6201	-161.466	74.7207	-64.1003	-158.197	68.4515	-88.9238	-195.513	80.0549	-44.4556	-188.078	78.0403	-77.6406	-183.505	66.3118	-105.631	-214.444	73.0304	-45.2471	-213.377	71.1565	-75.7819	-208.172	60.4044	-102.469	-243.757	56.8525	-35.4851	-244.42	54.1765	-55.0805	-240.638	50.3446	-80.8073	-229.163	74.2492	13.632	-233.807	75.8389	41.949	-197.816	79.822	31.1597	
17	0.141667	-168.648	52.4576	49.6781	-149.7	35.04	32.4831	-130.816	28.6675	13.0665	-113.855	19.0196	-4.76558	-165.061	84.3792	-28.7206	-160.572	82.5245	-61.9522	-155.78	72.4743	-85.811	-192.031	88.2606	-46.4121	-182.721	84.7903	-74.2822	-177.926	66.9538	-106.384	-216.025	79.461	-45.4391	-210.601	77.6957	-73.0084	-198.26	64.184	-97.7348	-240.029	61.8132	-33.8962	-240.745	57.4918	-59.6649	-233.887	54.323	-80.6179	-228.035	77.7523	12.2805	-238.235	74.7388	41.6865	-201.884	81.0232	34.7087	
18	0.15	-168.733	54.2077	48.8941	-151.456	37.9297	30.2109	-129.65	32.674	6.19951	-121.94	24.7981	-13.2221	-166.928	90.5914	-25.6016	-158.566	91.6	-57.1072	-155.541	76.1224	-83.5891	-191.142	95.0787	-40.2211	-182.279	89.9668	-76.1216	-175.573	72.709	-98.3851	-214.659	84.9819	-41.6624	-207.619	82.3835	-74.4623	-195.093	67.1038	-98.2948	-238.602	65.3871	-34.5342	-233.105	63.0909	-60.3054	-224.136	60.1396	-80.8886	-228.381	78.6136	15.3317	-240.628	74.5817	45.5571	-203.93	80.1383	37.1845	
19	0.158333	-172.282	53.6171	49.4983	-147.67	39.089	29.5345	-132.868	35.768	6.03434	-121.709	27.5627	-16.7589	-167.839	98.4143	-26.483	-159.09	97.8733	-52.1637	-152.011	77.8871	-78.1976	-189.981	101.284	-40.3069	-175.967	96.6368	-69.2933	-170.223	73.7235	-93.3513	-213.622	89.5081	-44.3189	-203.139	87.0954	-69.6675	-190.311	69.7569	-94.2086	-238.022	68.9278	-33.5273	-232.535	67.6302	-58.185	-219.858	61.8492	-81.6865	-229.294	82.7905	14.4593	-239.734	70.5985	47.3383	-200.029	82.1689	42.2477	
20	0.166667	-174.702	53.4896	51.6589	-147.31	42.1159	25.9922	-131.952	40.0848	1.88229	-124.397	32.2293	-23.173	-168.417	101.062	-19.0825	-158.644	100.619	-53.4539	-149.215	77.8486	-74.9801	-191.716	103.671	-35.6425	-174.372	101.462	-65.756	-165.301	73.3713	-88.8138	-212.527	92.5961	-39.5641	-200.13	90.0585	-73.0539	-186.41	72.973	-89.284	-234.311	72.1084	-34.1268	-227.418	70.5802	-58.2542	-210.501	66.4922	-79.417	-229.147	81.1863	15.4766	-238.923	72.2442	44.2662	-203.555	84.5571	39.4673	
21	0.175	-172.217	56.9909	50.249	-151.029	42.9069	28.8706	-133.549	42.9389	2.45499	-129.201	36.1708	-20.6632	-166.653	105.623	-18.5622	-155.199	105.886	-47.7228	-146.201	82.4043	-67.7601	-185.499	110.523	-33.9844	-173.716	103.49	-65.7455	-162.643	76.4666	-82.6475	-210.557	96.8161	-36.4624	-195.908	94.5727	-69.3853	-184.798	74.8436	-86.6233	-229.081	77.0662	-35.6638	-219.155	75.1054	-59.1727	-205.286	68.9626	-77.2885	-228.607	84.1484	15.9085	-241.574	71.3305	46.888	-203.782	84.491	42.8917	
22	0.183333	-173.042	55.8258	52.483	-149.536	47.9738	24.2938	-133.876	47.218	-0.371743	-129.739	41.8755	-28.6612	-165.196	108.546	-12.1961	-155.351	108.48	-45.1165	-146.177	82.5325	-61.4956	-186.017	112.427	-30.047	-176.774	107.75	-61.1996	-162.478	73.3392	-78.6367	-207.315	99.7188	-32.5148	-197.289	98.1289	-66.3691	-180.274	77.0909	-81.315	-229.894	79.759	-34.4749	-216.969	77.7636	-58.4695	-200.847	71.4937	-76.708	-231.519	85.2559	16.6041	-243.153	72.914	48.7832	-203.583	86.4328	45.6716	
23	0.191667	-174.476	59.4342	51.571	-151.244	50.747	24.9837	-137.152	49.3157	3.22916	-134.552	48.0784	-28.1966	-164.618	113.807	-13.0378	-155.37	108.26	-46.8479	-145.213	82.851	-56.6551	-188.811	117.356	-31.1272	-169.745	111.488	-59.0623	-158.714	75.2728	-70.9233	-211.121	104.076	-35.1059	-192.399	100.05	-65.1724	-178.552	76.5793	-77.9629	-225.632	84.1793	-31.3571	-212.773	82.8229	-55.3702	-194.781	73.6124	-70.9299	-231.589	83.8535	19.3585	-243.891	72.0799	45.5845	-205.105	87.352	43.6176	
